<svg xmlns="http://www.w3.org/2000/svg" version="1.1" xmlns:xlink="http://www.w3.org/1999/xlink" width="1000" height="1000"><g clip-path="url(#SvgjsClipPath1199)"><rect width="1000" height="1000" fill="#000000"></rect><g transform="matrix(8.641975308641975,0,0,8.641975308641975,150,379.01234567901236)"><svg xmlns="http://www.w3.org/2000/svg" version="1.1" xmlns:xlink="http://www.w3.org/1999/xlink" width="81" height="28"><svg width="81" height="28" viewBox="0 0 81 28" fill="none" xmlns="http://www.w3.org/2000/svg">
<path d="M0 15.9647V0.583907H6.04335C7.20515 0.583907 8.19493 0.806708 9.01267 1.25231C9.83042 1.69291 10.4537 2.30623 10.8825 3.0923C11.3163 3.87335 11.5332 4.77457 11.5332 5.79595C11.5332 6.81733 11.3138 7.71855 10.875 8.49961C10.4363 9.28066 9.8005 9.88898 8.9678 10.3246C8.14008 10.7602 7.13784 10.978 5.96108 10.978H2.10919V8.37193H5.43752C6.0608 8.37193 6.57439 8.26429 6.97828 8.049C7.38715 7.8287 7.69131 7.52579 7.89076 7.14027C8.0952 6.74974 8.19742 6.30163 8.19742 5.79595C8.19742 5.28526 8.0952 4.83966 7.89076 4.45914C7.69131 4.07362 7.38715 3.77572 6.97828 3.56544C6.5694 3.35015 6.05083 3.2425 5.42256 3.2425H3.23858V15.9647H0Z" fill="white"></path>
<path d="M14.5082 15.9647H11.0377L16.3257 0.583907H20.4992L25.7796 15.9647H22.3092L18.4722 4.09866H18.3526L14.5082 15.9647ZM14.2913 9.91902H22.4887V12.4575H14.2913V9.91902Z" fill="white"></path>
<path d="M27.6233 15.9647V0.583907H33.7564C34.8833 0.583907 35.8232 0.751634 36.5761 1.08709C37.329 1.42254 37.895 1.88817 38.2739 2.48397C38.6529 3.07477 38.8424 3.75569 38.8424 4.52674C38.8424 5.12755 38.7227 5.65576 38.4834 6.11138C38.244 6.56199 37.9149 6.93249 37.4961 7.22288C37.0822 7.50827 36.6085 7.71104 36.075 7.8312V7.9814C36.6584 8.00644 37.2044 8.17166 37.713 8.47707C38.2266 8.78249 38.6429 9.21057 38.962 9.76131C39.2812 10.307 39.4407 10.9579 39.4407 11.7139C39.4407 12.5301 39.2388 13.2585 38.8349 13.8994C38.436 14.5353 37.8451 15.0384 37.0623 15.4089C36.2794 15.7794 35.3146 15.9647 34.1678 15.9647H27.6233ZM30.8619 13.3061H33.5021C34.4046 13.3061 35.0628 13.1334 35.4767 12.7879C35.8905 12.4374 36.0974 11.9718 36.0974 11.391C36.0974 10.9654 35.9952 10.5899 35.7908 10.2645C35.5863 9.93905 35.2947 9.68371 34.9157 9.49846C34.5417 9.3132 34.0955 9.22058 33.5769 9.22058H30.8619V13.3061ZM30.8619 7.02011H33.2627C33.7065 7.02011 34.1004 6.9425 34.4445 6.78729C34.7935 6.62707 35.0678 6.40177 35.2672 6.11138C35.4717 5.82098 35.5739 5.47301 35.5739 5.06747C35.5739 4.51172 35.3769 4.06361 34.983 3.72315C34.5941 3.38269 34.0406 3.21246 33.3226 3.21246H30.8619V7.02011Z" fill="white"></path>
<path d="M41.548 15.9647V0.583907H44.7866V13.2836H51.3535V15.9647H41.548Z" fill="white"></path>
<path d="M66.978 8.2743C66.978 9.95157 66.6614 11.3785 66.0281 12.5551C65.3998 13.7317 64.5422 14.6304 63.4552 15.2512C62.3732 15.8671 61.1565 16.175 59.8053 16.175C58.444 16.175 57.2224 15.8646 56.1404 15.2437C55.0583 14.6229 54.2032 13.7242 53.5749 12.5476C52.9467 11.371 52.6325 9.94656 52.6325 8.2743C52.6325 6.59703 52.9467 5.17011 53.5749 3.99352C54.2032 2.81693 55.0583 1.92071 56.1404 1.30488C57.2224 0.684043 58.444 0.373623 59.8053 0.373623C61.1565 0.373623 62.3732 0.684043 63.4552 1.30488C64.5422 1.92071 65.3998 2.81693 66.0281 3.99352C66.6614 5.17011 66.978 6.59703 66.978 8.2743ZM63.6945 8.2743C63.6945 7.18783 63.5325 6.27159 63.2084 5.52559C62.8893 4.77958 62.438 4.21381 61.8546 3.82829C61.2712 3.44277 60.5881 3.25001 59.8053 3.25001C59.0224 3.25001 58.3393 3.44277 57.7559 3.82829C57.1725 4.21381 56.7188 4.77958 56.3947 5.52559C56.0755 6.27159 55.916 7.18783 55.916 8.2743C55.916 9.36077 56.0755 10.277 56.3947 11.023C56.7188 11.769 57.1725 12.3348 57.7559 12.7203C58.3393 13.1058 59.0224 13.2986 59.8053 13.2986C60.5881 13.2986 61.2712 13.1058 61.8546 12.7203C62.438 12.3348 62.8893 11.769 63.2084 11.023C63.5325 10.277 63.6945 9.36077 63.6945 8.2743Z" fill="white"></path>
<path d="M77.6866 5.00739C77.6268 4.40157 77.37 3.93093 76.9163 3.59548C76.4625 3.26002 75.8467 3.0923 75.0688 3.0923C74.5403 3.0923 74.094 3.1674 73.73 3.3176C73.366 3.4628 73.0868 3.66557 72.8923 3.92592C72.7029 4.18628 72.6081 4.48168 72.6081 4.81212C72.5981 5.08749 72.6555 5.32782 72.7801 5.5331C72.9098 5.73837 73.0868 5.91611 73.3112 6.06632C73.5356 6.21151 73.7948 6.33918 74.089 6.44933C74.3832 6.55448 74.6974 6.6446 75.0314 6.7197L76.4076 7.05015C77.0758 7.20035 77.6891 7.40062 78.2476 7.65096C78.806 7.9013 79.2897 8.20921 79.6986 8.57471C80.1075 8.9402 80.4241 9.37078 80.6485 9.86645C80.8778 10.3621 80.995 10.9304 81 11.5713C80.995 12.5125 80.7557 13.3286 80.282 14.0196C79.8133 14.7055 79.1351 15.2387 78.2476 15.6192C77.365 15.9947 76.3004 16.1825 75.0539 16.1825C73.8173 16.1825 72.7403 15.9922 71.8228 15.6117C70.9103 15.2312 70.1973 14.6679 69.6837 13.9219C69.1751 13.1709 68.9083 12.2422 68.8834 11.1357H72.0172C72.0521 11.6514 72.1992 12.0819 72.4585 12.4274C72.7228 12.7679 73.0743 13.0257 73.5131 13.201C73.9569 13.3712 74.458 13.4563 75.0165 13.4563C75.565 13.4563 76.0412 13.3762 76.445 13.216C76.8539 13.0558 77.1706 12.833 77.3949 12.5476C77.6193 12.2622 77.7315 11.9342 77.7315 11.5637C77.7315 11.2183 77.6293 10.9279 77.4249 10.6926C77.2254 10.4573 76.9312 10.257 76.5423 10.0918C76.1583 9.92653 75.6871 9.77633 75.1287 9.64115L73.4608 9.22058C72.1693 8.90515 71.1496 8.41199 70.4017 7.74108C69.6538 7.07017 69.2823 6.16645 69.2873 5.02992C69.2823 4.09866 69.5291 3.28506 70.0277 2.58912C70.5313 1.89318 71.2219 1.34994 72.0995 0.959415C72.9771 0.568887 73.9744 0.373623 75.0913 0.373623C76.2281 0.373623 77.2204 0.568887 78.0681 0.959415C78.9207 1.34994 79.5839 1.89318 80.0576 2.58912C80.5313 3.28506 80.7756 4.09115 80.7906 5.00739H77.6866Z" fill="white"></path>
<path d="M31.3206 16.9522C31.3918 17.0201 31.456 16.9575 31.5058 16.8681C31.9939 15.9828 32.6921 14.9634 33.5203 14.3696C34.1473 13.9207 34.8847 14.1943 35.3193 14.7559C35.4654 14.9437 35.5313 15.2209 35.6257 15.3425C35.7682 15.5267 35.7628 15.3282 35.8288 15.2585C36.47 14.5788 37.2092 14.0011 38.1639 14.5234C38.2636 14.577 38.4311 14.8364 38.5557 14.7505C38.5718 14.7398 38.6537 14.4912 38.7125 14.4C38.8585 14.1728 39.2326 13.5934 39.4748 13.5594C40.1036 13.4699 41.1295 14.1818 41.0262 14.8739C40.9781 15.1994 40.7003 15.4462 40.6344 15.7646L41.4947 14.8131C42.2962 14.1871 42.8733 14.239 43.7176 14.7541C44.3517 13.5379 45.1069 12.1626 46.0029 11.1234C46.5639 10.4724 47.1499 9.86254 47.9337 10.6745C48.3807 11.1377 48.3433 11.4972 48.0423 12.0248C47.7858 12.4738 47.3477 13.0497 47.0431 13.5361C46.7617 13.9868 46.3698 14.4232 46.2113 14.9329C46.7456 14.4465 47.2212 13.9868 48.0067 14.1138C48.1741 14.1406 48.4876 14.3374 48.5571 14.3374C48.6835 14.3374 48.7655 14.0959 48.9418 14.1585C48.7477 14.3624 49.054 15.144 49.2428 14.8954C49.4209 14.6611 49.4655 14.4 49.8645 14.341C50.3935 14.2623 50.7889 14.7613 50.8673 14.7595C51.2057 14.7505 51.4604 14.2247 51.9894 14.2801C52.1283 14.2945 52.2744 14.4125 52.4098 14.3982C52.522 14.3857 52.5594 14.2569 52.6787 14.2784C52.595 14.6414 52.8764 14.7523 53.0172 15.0403C53.1151 15.2424 53.1596 15.4248 53.1828 15.6466C54.0716 14.8543 55.306 13.1194 56.2696 14.8739C56.462 14.8739 56.7594 14.078 57.3347 14.0977C57.992 14.1192 58.5744 15.0224 58.5228 15.6466C58.9164 15.2924 59.1943 14.7899 59.5594 14.425C60.0047 13.9797 60.0493 14.0262 60.5391 14.4572C60.9488 14.8167 61.1803 15.2781 61.093 15.8397C61.0521 16.0991 60.8098 16.9325 60.7083 17.1811C60.6851 17.2383 60.4678 17.2866 60.5711 17.3707C60.6566 17.4404 61.0271 17.0005 61.5401 17.3224C62.6177 17.9949 61.6203 19.1377 61.1019 19.7637C60.4946 20.497 59.2798 21.4699 58.8149 22.1549C58.4444 22.7022 58.1327 23.5643 57.7711 24.1724C57.023 25.4333 55.1047 28.1822 53.5123 26.3257C52.2673 24.8735 53.7474 23.4874 54.8803 22.6432C55.6337 22.0816 56.5386 21.799 56.7737 20.7635C56.4584 20.8833 56.1645 21.1444 55.8011 21.1176C55.5892 21.1015 55.2739 20.9334 55.1118 20.7921C55.0352 20.7259 54.98 20.5059 54.8518 20.5292C54.2978 21.0443 53.653 21.892 52.8266 21.8813C52.611 21.8777 52.3065 21.7167 52.2334 21.7167C52.139 21.7167 52.0393 21.8777 51.9075 21.8348C52.0767 21.4288 51.7668 21.2911 51.6474 20.9352C51.5156 20.5399 51.594 20.3235 51.6706 19.93C50.9545 20.0731 50.2243 19.4114 50.2474 18.6799C50.1103 18.6423 50.1477 18.7121 50.112 18.755C49.7487 19.1806 49.3087 19.8442 49.0131 20.3253C48.7388 20.7724 48.6141 21.2804 48.2258 21.6774C47.8001 22.1102 47.4332 22.1961 46.8739 21.9153C46.6512 21.8044 46.4482 21.4753 46.4179 21.4699C46.2825 21.4503 45.6306 21.9922 45.3385 22.053C44.7062 22.1835 44.2288 21.8348 43.8423 21.3859C43.7889 21.3233 43.7069 21.021 43.6054 21.1176C43.5591 21.1623 43.3827 22.1299 43.2509 22.3391C42.9606 22.7988 42.298 22.7237 41.9151 22.4268C41.4448 22.0619 41.3522 21.5665 41.411 20.9996C41.1295 21.0872 40.8481 21.0854 40.5685 20.9817C40.2888 20.8779 39.9183 20.3611 39.7171 20.5184C39.2272 21.0979 38.2957 22.5037 37.5209 22.6003C37.2608 22.6325 36.9491 22.5019 36.7674 22.5573C36.5982 22.6074 36.4254 22.9633 36.3987 22.9633C36.0817 22.9615 36.4664 22.3785 36.4183 22.171C36.3969 22.0744 36.0763 21.7561 36.0282 21.5486C35.9908 21.3841 36.0532 21.0997 35.9855 20.996C35.9089 20.8797 35.7023 21.0049 35.5669 21.0049C35.1448 21.0031 34.7315 20.6901 34.4359 20.4058C34.1455 20.6526 33.8784 20.9996 33.5791 21.2678C32.5674 22.1764 31.5308 22.5556 30.7203 21.1587C30.3516 20.5238 30.3908 20.1089 30.5297 19.4114C30.5743 19.1878 30.5582 19.2951 30.6063 19.1681C30.6669 19.0036 30.7862 18.7872 30.7007 18.6208C30.4051 18.8247 30.3801 19.338 30.2572 19.6635C29.7923 20.9066 29.2687 22.1317 28.7931 23.3729C28.6025 23.8737 28.1447 25.4655 27.8544 25.7641C27.1508 26.4849 26.0233 25.3742 26.0412 24.6052C26.0483 24.285 26.3137 23.4838 26.417 23.1332C26.8801 21.5594 27.5409 20.0034 28.1145 18.467C28.1376 18.3615 28.118 18.3883 28.0307 18.383C27.6888 18.3615 26.1747 18.8283 25.7615 18.9642C25.5727 19.0268 24.9529 19.2182 24.8638 19.313C24.7053 19.4811 24.1157 20.7241 23.9643 21.03C23.5653 21.8419 23.1378 22.7738 22.7994 23.6108C22.461 24.4478 22.0264 25.4833 22.0032 26.3221C21.9908 26.7603 21.5704 27.0751 21.1483 27.0769C20.4233 27.0805 19.6645 26.1469 19.6912 25.435C19.7126 24.8681 20.1169 23.7735 20.32 23.2066C20.6477 22.2891 21.0752 21.4109 21.4742 20.5256C20.9915 20.5739 20.3449 21.0693 19.8783 20.8457C19.3689 20.6025 19.1622 19.9676 19.3689 19.4543C19.5862 18.9124 21.0075 18.1934 21.5722 18.1523C21.8233 18.1344 22.0121 18.2238 22.2152 18.2095C22.2615 18.2059 22.6854 18.0861 22.7068 18.0718C22.7353 18.0521 22.9348 17.5477 22.9953 17.4386C24.5129 14.7165 26.3636 11.9247 28.4458 9.63361C29.4699 8.50685 31.415 6.29626 32.8328 8.15272C33.7875 9.40289 33.173 11.3434 32.7794 12.7295C32.3857 14.1156 31.8086 15.5536 31.3259 16.954L31.3206 16.9522ZM29.0656 17.6068C28.5758 19.0572 27.9524 20.4684 27.4608 21.9188C27.2826 22.4465 26.6379 24.2815 26.6949 24.7125C26.7287 24.97 27.1384 25.4833 27.4055 25.3152C28.3763 22.7612 29.3363 20.1894 30.4015 17.6658C30.6598 17.3331 30.9626 18.315 31.0783 17.9269C31.1621 17.6479 30.6224 17.1221 30.633 17.0076C31.2191 15.3568 31.903 13.7168 32.3715 12.0248C32.6636 10.9696 33.1516 9.36175 32.3537 8.44604C32.0526 8.10086 31.6822 7.87193 31.2173 8.01143C30.2002 8.31906 27.9167 11.1503 27.2025 12.0767C25.6564 14.0816 24.3401 16.2439 23.1343 18.4706C23.0025 18.603 22.1475 18.9446 21.9908 18.9034C21.9035 18.882 21.8304 18.7603 21.7307 18.7496C21.4653 18.7192 20.0742 19.3774 19.9602 19.6296C19.864 19.8424 19.9103 20.2377 20.1953 20.2573L22.6587 19.3899C21.9587 21.0818 21.0182 22.7147 20.5391 24.4943C20.4465 24.8413 20.2933 25.3116 20.3485 25.664C20.4002 25.9895 20.8455 26.4813 21.2035 26.4116C21.4724 26.3597 21.2907 26.1487 21.305 25.9788C21.3121 25.8947 21.3976 25.6747 21.4279 25.5656C21.8696 24.0329 22.6391 22.3713 23.3373 20.9352C23.5475 20.5024 24.1478 19.1234 24.4043 18.8516C24.4987 18.7496 24.6109 18.7013 24.7356 18.6477C25.2628 18.417 26.1088 18.1862 26.6788 18.0378C26.9745 17.9609 28.9623 17.5084 29.0638 17.605L29.0656 17.6068ZM42.5331 19.0948C42.485 19.8585 41.4644 21.5111 42.3942 22.0029C42.8395 22.239 42.8235 21.5451 42.9214 21.2392C43.6392 19.0125 44.6492 16.3924 45.7856 14.3535C46.0492 13.8795 47.6683 11.6314 47.638 11.3327C47.6148 11.1038 47.223 10.8122 46.954 11.0018C46.3734 11.4132 45.1711 13.3161 44.7774 13.9976C44.6064 14.2945 44.0168 15.5804 43.8672 15.702C43.5751 15.9417 43.6161 15.6323 43.5341 15.5035C43.3186 15.1637 42.7718 14.8435 42.371 14.9759C41.5143 15.2585 40.8125 16.7876 40.4224 17.5442L37.5494 20.9101C37.4692 20.9477 37.3463 20.9924 37.3766 20.8565C37.4799 20.4076 37.7471 19.7029 37.9199 19.2576C38.2209 18.4778 38.6199 17.6533 39.0438 16.9343C39.3074 16.4854 40.328 15.1815 40.3868 14.8238C40.4385 14.5144 39.7954 14.0584 39.5372 14.2748C39.3573 14.425 39.0367 15.1082 38.8443 15.364C38.7873 15.4391 38.5077 15.8039 38.4685 15.82C38.3687 15.8612 38.3883 15.7807 38.3669 15.7449C38.1087 15.305 37.8789 14.8346 37.227 14.9294C36.7069 15.0063 35.8003 16.2797 35.5064 16.7179C35.0343 17.4225 34.7369 17.9663 34.1616 18.628C33.8427 18.9946 32.4463 20.4594 32.0598 20.522C31.9618 20.5381 31.9636 20.5292 31.9796 20.4415C32.042 20.1071 32.2824 19.6045 32.4178 19.2719C32.6832 18.6191 33.3298 17.1453 33.8089 16.6803C34.1081 16.3888 34.0547 16.8717 34.2862 16.9772C34.3753 17.0183 34.5018 17.038 34.5855 16.9808C34.63 16.9504 35.0076 16.083 35.029 15.9989C35.1715 15.4552 34.6977 14.6504 34.0832 14.7469C33.8285 14.7863 32.8738 15.8308 32.6832 16.0847C32.0135 16.9826 30.8753 19.3237 31.0267 20.4237C31.1051 20.9906 31.643 21.5021 32.2343 21.4073C32.7651 21.3215 33.8908 20.0552 34.3183 19.626C34.3682 19.5759 34.3985 19.4561 34.4359 19.4453C34.6247 19.3863 34.63 19.6671 34.7333 19.8013C35.0504 20.209 35.387 20.4737 35.9303 20.2949C36.0692 20.2484 36.7176 19.6796 36.7763 19.7458C36.6855 20.3128 36.4094 21.0693 36.7514 21.5862C37.2893 22.3982 37.8201 21.7954 38.2903 21.2929C38.8532 20.6937 39.3751 19.9157 39.8916 19.2665C40.1018 19.2111 40.0395 19.4668 40.1125 19.6421C40.2407 19.9479 40.6504 20.4576 41.0102 20.4541C41.6479 20.4505 42.0914 19.4453 42.5296 19.0894L42.5331 19.0948ZM45.0856 20.6401C45.0125 20.5667 45.7446 18.7711 45.855 18.7031C45.9512 18.6423 46.026 18.7747 46.1258 18.7943C46.3662 18.839 46.5016 18.7872 46.6886 18.6495C47.3566 18.1523 48.0566 17.1203 48.3772 16.3548C48.6212 15.7682 48.8866 15.33 48.2596 14.8686C47.6825 14.4447 47.255 14.8078 46.8062 15.1941C45.8408 16.0275 44.8968 17.7176 44.4639 18.9142C44.2128 19.6117 43.8583 20.5828 44.4604 21.1766C45.0624 21.7704 45.7286 21.1569 46.2398 20.7563C46.3823 20.6454 46.8952 20.1303 46.9558 20.1053C47.027 20.0749 47.0716 20.1214 47.0431 20.1929C46.8899 20.5918 46.523 20.9066 47.0734 21.2947C47.8197 21.8223 48.1919 20.4952 48.4787 20.0266C49.3248 18.6512 50.3507 17.4011 51.464 16.2368C51.6065 16.2082 51.5584 16.3512 51.5388 16.4299C51.439 16.8037 51.236 17.2276 51.122 17.6175C50.9777 18.104 50.5769 19.0644 51.2752 19.2844C51.5138 19.3595 51.635 19.2325 51.8202 19.0894C52.2851 18.7282 52.9477 17.8983 53.3698 17.4297C53.4304 17.3635 53.4571 17.2813 53.5711 17.3045C53.2737 18.2327 52.1978 19.5062 52.2014 20.488C52.2014 20.7867 52.3884 21.182 52.7144 21.2303C53.5141 21.3447 54.5223 19.8478 55.0833 19.3881C55.208 19.3345 55.1724 19.6618 55.2169 19.787C55.566 20.7706 56.0594 20.5256 56.6525 19.9533L58.9681 17.2455C58.619 18.2417 58.1844 19.2415 57.7337 20.2019C57.4363 20.8368 57.0533 21.8312 56.5314 22.2694C55.6177 23.0367 52.8337 24.2654 53.9256 25.8446C54.8482 27.1806 56.2821 25.3206 56.7986 24.5587C57.3668 23.7199 57.7604 22.5806 58.2912 21.8312C58.8612 21.0264 60.0404 20.1035 60.7208 19.2701C61.0414 18.8766 61.7432 18.1934 61.1358 17.782C60.4785 18.6101 59.8302 19.4632 59.0304 20.1607C59.2388 19.279 59.6414 18.4384 59.921 17.5728C60.092 17.0416 60.5747 15.7002 60.4269 15.2173C60.3966 15.1154 60.1722 14.8614 60.0671 14.8614C59.962 14.8614 59.8159 15.0546 59.7429 15.1333C58.7223 16.2171 57.7426 17.8983 56.6258 18.8516C56.5581 18.9088 56.5296 18.9946 56.4174 18.9696L57.8994 15.4248C57.406 14.1371 57.007 14.9222 56.5849 15.6573C56.1627 16.3924 55.8421 17.4386 55.4342 18.0736C55.1777 18.4742 53.4197 20.2788 53.0296 20.5417C52.9584 20.59 52.8943 20.6526 52.7981 20.6347C52.6841 20.522 53.7617 18.5243 53.9042 18.2631C54.4759 17.2204 55.1759 16.2457 55.7067 15.1941C55.3933 14.3481 54.8785 14.8954 54.4279 15.2763L51.8202 17.9555C51.7383 17.9144 51.8166 17.7946 51.838 17.7355C52.0268 17.1936 52.6823 15.7807 52.4721 15.2781C52.424 15.1637 52.0304 14.8507 51.895 14.8686C51.7668 14.8864 51.4622 15.1261 51.3482 15.2191C51.2591 15.2906 50.7337 15.8916 50.6642 15.8129C50.8352 15.4033 50.1477 14.7183 49.8306 15.0081C49.7825 15.0528 49.7344 15.1601 49.6899 15.2227C49.0843 16.0669 48.6729 17.3063 48.0512 18.1022C47.7858 18.4402 47.255 18.9285 46.9255 19.2343C46.7581 19.3917 45.2191 20.7653 45.0856 20.6311V20.6401ZM40.6362 15.8218C40.5435 15.7253 40.2087 16.3172 40.1374 16.362L39.213 17.9037C39.3591 17.9251 39.3377 17.9108 39.4089 17.8303C39.5621 17.6586 39.6904 17.3671 39.9005 17.2258L40.6362 15.8218ZM33.6076 18.4134C33.6913 18.3186 34.1794 17.7659 34.199 17.7248C34.2952 17.5191 34.0939 17.4172 33.9318 17.5155C33.8855 17.5442 33.4331 18.3275 33.4081 18.4205C33.3298 18.7085 33.5399 18.4885 33.6076 18.4134Z" fill="black"></path>
<path d="M45.0854 20.6401C45.219 20.7743 46.7579 19.3989 46.9254 19.2433C47.2531 18.9357 47.7857 18.4492 48.0511 18.1112C48.6727 17.3153 49.0824 16.0759 49.6898 15.2317C49.7343 15.1691 49.7824 15.0618 49.8305 15.0171C50.1475 14.7273 50.8333 15.4123 50.6641 15.8219C50.7335 15.9006 51.259 15.3015 51.348 15.2281C51.462 15.1351 51.7666 14.8955 51.8949 14.8776C52.0302 14.8597 52.4239 15.1709 52.472 15.2871C52.6822 15.7897 52.0267 17.2026 51.8379 17.7445C51.8165 17.8036 51.7381 17.9252 51.8201 17.9645L54.4277 15.2854C54.8784 14.9044 55.3931 14.3571 55.7066 15.2031C55.1758 16.2547 54.4776 17.2295 53.904 18.2722C53.7616 18.5333 52.6839 20.5293 52.7979 20.6437C52.8941 20.6598 52.9582 20.599 53.0295 20.5507C53.4196 20.2878 55.1758 18.4814 55.4341 18.0826C55.842 17.4477 56.1626 16.3978 56.5847 15.6663C57.0069 14.9348 57.4058 14.1461 57.8992 15.4338L56.4173 18.9786C56.5277 19.0037 56.558 18.9178 56.6257 18.8606C57.7425 17.9073 58.7204 16.2279 59.7428 15.1423C59.8158 15.0636 59.9654 14.8704 60.0669 14.8704C60.1685 14.8704 60.3947 15.1244 60.4267 15.2263C60.5746 15.7074 60.0919 17.0506 59.9209 17.5818C59.6412 18.4474 59.2387 19.2862 59.0303 20.1698C59.83 19.4705 60.4784 18.6173 61.1356 17.7911C61.743 18.2006 61.043 18.8856 60.7206 19.2791C60.0402 20.1125 58.8611 21.0354 58.2911 21.8402C57.7603 22.5896 57.3667 23.7289 56.7985 24.5677C56.2819 25.3296 54.8481 27.1896 53.9254 25.8536C52.8353 24.2744 55.6175 23.0457 56.5313 22.2784C57.0532 21.8402 57.4343 20.8458 57.7336 20.2109C58.1842 19.2505 58.6206 18.2525 58.9679 17.2545L56.6524 19.9623C56.0593 20.5364 55.5677 20.7796 55.2168 19.796C55.1722 19.669 55.2079 19.3417 55.0832 19.3971C54.5221 19.8568 53.514 21.3538 52.7142 21.2393C52.3883 21.1928 52.2012 20.7975 52.2012 20.4971C52.1977 19.5152 53.2735 18.2418 53.571 17.3135C53.457 17.2885 53.4285 17.3708 53.3697 17.4387C52.9476 17.9055 52.285 18.7372 51.8201 19.0984C51.6366 19.2415 51.5137 19.3685 51.275 19.2934C50.5768 19.0716 50.9793 18.113 51.1218 17.6265C51.2376 17.2366 51.4407 16.8127 51.5386 16.4389C51.56 16.3602 51.6063 16.2172 51.4638 16.2458C50.3506 17.4101 49.3246 18.6603 48.4786 20.0356C48.19 20.5042 47.8195 21.8313 47.0732 21.3037C46.5228 20.9156 46.8898 20.6008 47.0429 20.202C47.0714 20.1304 47.0269 20.0839 46.9557 20.1143C46.8969 20.1394 46.3821 20.6544 46.2396 20.7653C45.7284 21.166 45.0658 21.783 44.4602 21.1856C43.8546 20.5883 44.2109 19.6207 44.4638 18.9232C44.8966 17.7267 45.8406 16.0347 46.806 15.2031C47.2549 14.815 47.6824 14.4519 48.2595 14.8776C48.8847 15.3372 48.6211 15.7772 48.377 16.3638C48.0564 17.1293 47.3582 18.1595 46.6885 18.6585C46.5015 18.798 46.3679 18.8498 46.1256 18.8033C46.0259 18.7837 45.9529 18.6513 45.8549 18.7121C45.7445 18.7819 45.0106 20.5758 45.0854 20.6491V20.6401ZM47.8142 15.8219C47.7536 15.7539 47.4188 16.1224 47.3689 16.1778C47.0073 16.5802 46.3999 17.4745 46.1826 17.9645C46.1452 18.0486 46.1773 18.1291 46.2432 18.1434C46.4854 18.1935 47.8498 16.2279 47.8142 15.8237V15.8219ZM56.0023 23.4392C55.2203 23.8129 54.2834 24.6017 54.2229 25.521C54.4242 25.7356 55.37 24.4729 55.4822 24.3137C55.5534 24.2136 56.0557 23.491 56.0023 23.4374V23.4392Z" fill="#00EB8F"></path>
<path d="M42.5332 19.0948C42.095 19.4507 41.6497 20.4559 41.0138 20.4595C40.654 20.4612 40.2426 19.9533 40.1161 19.6475C40.0431 19.4722 40.1054 19.2182 39.8953 19.2719C39.3787 19.9193 38.8568 20.6973 38.294 21.2983C37.8237 21.799 37.2912 22.4036 36.755 21.5916C36.413 21.0747 36.6891 20.3182 36.78 19.7512C36.7212 19.685 36.0728 20.2538 35.9339 20.3003C35.3924 20.4791 35.054 20.2144 34.7369 19.8066C34.6336 19.6725 34.6283 19.3917 34.4395 19.4507C34.4021 19.4633 34.3718 19.5831 34.3219 19.6314C33.8962 20.0588 32.7705 21.3269 32.238 21.4127C31.6466 21.5075 31.1087 20.9978 31.0303 20.429C30.8789 19.3291 32.0171 16.988 32.6868 16.0901C32.8756 15.8362 33.8321 14.7917 34.0868 14.7523C34.7031 14.6558 35.1751 15.4606 35.0326 16.0043C35.0113 16.0883 34.6336 16.9558 34.5891 16.9862C34.5054 17.0434 34.3789 17.0237 34.2899 16.9826C34.0583 16.8771 34.1135 16.3942 33.8125 16.6857C33.3334 17.1507 32.6868 18.6244 32.4214 19.2773C32.286 19.6099 32.0456 20.1125 31.9832 20.4469C31.9672 20.5328 31.9654 20.5435 32.0634 20.5274C32.4499 20.4648 33.8464 19 34.1652 18.6334C34.7405 17.9699 35.038 17.4261 35.51 16.7233C35.8039 16.2851 36.7105 15.0117 37.2306 14.9348C37.8807 14.84 38.1105 15.3103 38.3706 15.7503C38.3919 15.7861 38.3723 15.8666 38.4721 15.8254C38.5113 15.8093 38.7909 15.4463 38.8479 15.3694C39.0421 15.1118 39.3609 14.4304 39.5408 14.2802C39.8008 14.0638 40.4421 14.5198 40.3904 14.8292C40.3316 15.1869 39.311 16.4908 39.0474 16.9397C38.6235 17.6587 38.2245 18.4849 37.9235 19.2629C37.7525 19.7083 37.4835 20.413 37.3802 20.8619C37.3499 20.9978 37.4728 20.9531 37.553 20.9155L40.426 17.5496C40.8161 16.7912 41.5161 15.2638 42.3747 14.9813C42.7754 14.8489 43.3222 15.1691 43.5378 15.5089C43.6197 15.6394 43.5787 15.9471 43.8708 15.7074C44.0205 15.584 44.61 14.2998 44.781 14.0029C45.1747 13.3215 46.377 11.4186 46.9576 11.0072C47.2266 10.8176 47.6185 11.1091 47.6416 11.3381C47.6719 11.6368 46.0528 13.8867 45.7892 14.3589C44.6528 16.3978 43.6429 19.0179 42.925 21.2446C42.8271 21.5504 42.8413 22.2444 42.3978 22.0083C41.468 21.5165 42.4887 19.8639 42.5367 19.1002L42.5332 19.0948ZM35.8894 18.7961C35.9909 18.9052 36.4896 18.3526 36.5716 18.2614C37.0881 17.6891 37.5316 16.9898 38.0571 16.4174C38.1016 16.3226 37.7739 15.9757 37.6991 15.8827C36.8975 16.5784 36.4932 17.5567 36.0247 18.4849C35.9998 18.535 35.77 18.6692 35.8894 18.7979V18.7961ZM43.1869 15.8809C43.121 15.8666 43.0711 15.888 43.0123 15.9113C42.453 16.1384 41.4039 18.2614 41.2187 18.873C41.1403 19.1324 41.1403 19.2862 41.3736 19.0286C42.1057 18.2202 42.6988 17.2938 43.3401 16.4139L43.1887 15.8809H43.1869Z" fill="#00EB8F"></path>
<path d="M29.0656 17.6067C28.9641 17.5119 26.9745 17.9626 26.6806 18.0395C26.1107 18.188 25.2646 18.4169 24.7374 18.6494C24.6145 18.7031 24.5022 18.7513 24.4061 18.8533C24.1496 19.1269 23.5493 20.5059 23.3391 20.9369C22.6409 22.3731 21.8714 24.0346 21.4297 25.5673C21.3976 25.6764 21.3139 25.8964 21.3068 25.9805C21.2926 26.1504 21.4725 26.3614 21.2053 26.4133C20.8473 26.483 20.4002 25.9912 20.3503 25.6657C20.2951 25.3134 20.4483 24.843 20.5409 24.496C21.0183 22.7165 21.9587 21.0818 22.6605 19.3916L20.1971 20.2591C19.9121 20.2394 19.8658 19.8441 19.962 19.6313C20.076 19.3791 21.4671 18.7209 21.7325 18.7513C21.8323 18.7621 21.9071 18.8837 21.9926 18.9052C22.1511 18.9463 23.0061 18.6047 23.1361 18.4723C24.3419 16.2456 25.6582 14.0833 27.2043 12.0784C27.9186 11.152 30.2038 8.31899 31.2191 8.01316C31.684 7.87365 32.0545 8.10258 32.3555 8.44776C33.1534 9.36348 32.6636 10.9713 32.3733 12.0266C31.9048 13.7185 31.2209 15.3568 30.6349 17.0093C30.6242 17.122 31.1639 17.6478 31.0802 17.9286C30.9644 18.3185 30.6616 17.3348 30.4033 17.6675C29.3382 20.1911 28.3799 22.763 27.4074 25.3169C27.1402 25.4833 26.7305 24.9718 26.6967 24.7142C26.6397 24.2814 27.2845 22.4464 27.4626 21.9206C27.9542 20.4701 28.5776 19.0608 29.0674 17.6085L29.0656 17.6067ZM31.855 9.27584C31.7303 9.14886 30.9448 9.86963 30.8148 9.98767C29.2438 11.4203 27.6389 13.6022 26.4669 15.3854C26.3173 15.6143 24.928 17.7462 25.033 17.8428C25.8488 17.6586 26.6432 17.3867 27.4626 17.2168C27.7743 17.1524 29.2562 16.9771 29.3667 16.8663C29.4771 16.7554 29.9598 15.4426 30.0595 15.1815C30.3053 14.543 32.0723 9.49404 31.8532 9.27584H31.855Z" fill="#00EB8F"></path>
<path d="M56.0025 23.4391C56.056 23.4927 55.5537 24.2153 55.4824 24.3155C55.3702 24.4728 54.4262 25.7355 54.2231 25.5227C54.2837 24.6034 55.2206 23.8147 56.0025 23.4409V23.4391Z" fill="black"></path>
<path d="M47.814 15.8219C47.8496 16.2279 46.4852 18.1916 46.2429 18.1416C46.177 18.1273 46.145 18.0468 46.1824 17.9627C46.3997 17.4727 47.0089 16.5784 47.3687 16.176C47.4185 16.1206 47.7534 15.7521 47.814 15.8201V15.8219Z" fill="black"></path>
<path d="M43.1869 15.8808L43.3383 16.4138C42.697 17.2938 42.1039 18.2202 41.3718 19.0286C41.1385 19.2861 41.1385 19.1341 41.2169 18.873C41.4021 18.2613 42.4512 16.1384 43.0105 15.9112C43.0693 15.888 43.1192 15.8665 43.1851 15.8808H43.1869Z" fill="black"></path>
<path d="M35.8893 18.7962C35.77 18.6674 35.998 18.535 36.0247 18.4832C36.4931 17.5567 36.8957 16.5766 37.699 15.8809C37.7756 15.9739 38.1015 16.3227 38.057 16.4157C37.5333 16.988 37.088 17.6873 36.5715 18.2596C36.4896 18.3508 35.9908 18.9035 35.8893 18.7944V18.7962Z" fill="black"></path>
<path d="M31.8551 9.27592C32.0724 9.49411 30.3055 14.5431 30.0615 15.1816C29.9599 15.4445 29.479 16.7554 29.3686 16.8663C29.2581 16.9772 27.7762 17.1525 27.4645 17.2169C26.6434 17.3868 25.8507 17.6586 25.035 17.8429C24.9299 17.7463 26.3192 15.6126 26.4688 15.3854C27.6426 13.6023 29.2457 11.4203 30.8167 9.98774C30.9467 9.8697 31.7304 9.14893 31.8569 9.27592H31.8551ZM30.8452 10.882C30.7383 10.8587 30.7009 10.9392 30.6368 10.9982C29.3686 12.1626 28.4103 13.6828 27.3808 15.051L26.2194 16.8896C27.1243 16.7197 28.0131 16.4478 28.9393 16.4031C29.691 14.6075 30.3803 12.7742 30.847 10.8784L30.8452 10.882Z" fill="black"></path>
</svg></svg></g></g><defs><clipPath id="SvgjsClipPath1199"><rect width="1000" height="1000" x="0" y="0" rx="500" ry="500"></rect></clipPath></defs></svg>